<?xml version="1.0" encoding="UTF-8"?>
<svg version="1.1" xmlns="http://www.w3.org/2000/svg" width="2133" height="2133">
<path d="M0 0 C1.50356219 0.17350062 3.00714337 0.34683666 4.51074219 0.52001953 C56.54157003 6.59730274 107.2456348 18.72576291 157 35 C158.20846588 35.39475525 158.20846588 35.39475525 159.44134521 35.79748535 C181.62639181 43.06197145 203.49195944 50.91196766 225 60 C226.11810059 60.47228027 227.23620117 60.94456055 228.38818359 61.43115234 C255.84674443 73.13263108 282.52253007 86.44045315 308 102 C309.01030273 102.61230469 310.02060547 103.22460938 311.06152344 103.85546875 C324.48158977 112.0092203 337.42942152 120.59158567 350 130 C351.09323515 130.80798874 352.18694697 131.61533314 353.28125 132.421875 C363.89146913 140.29577446 374.28243434 148.43464076 384.32275391 157.02392578 C387.60442769 159.83094848 390.934941 162.55803507 394.3125 165.25 C401.11671206 170.78462147 407.40340086 176.86581357 413.75854492 182.90209961 C416.26385087 185.24695246 418.81250889 187.54020775 421.359375 189.83984375 C429.11743599 196.89916911 436.49615679 204.34613256 443.90161133 211.77124023 C446.32194526 214.1969663 448.7476222 216.61725798 451.17382812 219.03710938 C452.73730012 220.60124175 454.30046212 222.16568406 455.86328125 223.73046875 C456.57696365 224.44212692 457.29064606 225.1537851 458.0259552 225.88700867 C462.02494375 229.90449423 465.84878578 234.01940629 469.54118347 238.32099915 C471.27150511 240.31248433 473.10249989 242.16793093 475 244 C478.17089998 247.12845964 481.1256996 250.36855352 484.02734375 253.74609375 C485.96458906 255.95954037 487.95084932 258.12186491 489.95166016 260.27783203 C494.71453304 265.41323837 499.25460194 270.65893392 503.64453125 276.12109375 C505.30250183 278.14750224 506.97305866 280.13176861 508.69921875 282.09765625 C533.86266554 310.76503618 554.39298395 343.25574464 572 377 C572.57975586 378.10359863 573.15951172 379.20719727 573.75683594 380.34423828 C611.66693337 452.90058173 639.02119331 532.48702756 659 699 C659.06248114 700.19819225 659.06248114 700.19819225 659.12622452 701.4205904 C660.18099302 722.39721337 660.14834206 743.36372484 660.1343255 764.36053133 C660.13174166 769.46849394 660.13415687 774.57645502 660.13571167 779.68441772 C660.1375211 788.2860344 660.13516468 796.88764245 660.13037109 805.48925781 C660.12557502 814.19271407 660.12551759 822.89615316 660.13037109 831.59960938 C660.18193383 926.60374506 660.18193383 926.60374506 659 972 C658.97950089 972.80480301 658.95900177 973.60960602 658.93788147 974.438797 C658.72772117 982.6589439 658.48248298 990.8771383 658.17993164 999.09448242 C658.05823775 1002.42929971 657.94786399 1005.76438672 657.83789062 1009.09960938 C657.21649705 1027.06809253 656.58641339 1045.19258006 654 1063 C609.25488284 1063.00549798 564.50976565 1063.01076994 519.76464844 1063.01586914 C518.45132991 1063.01601884 518.45132991 1063.01601884 517.1114797 1063.01617156 C423.31953885 1063.02685614 329.52759799 1063.03607996 235.73565674 1063.04234314 C233.65293573 1063.04248259 231.57021473 1063.04262204 229.48749372 1063.04276149 C185.77327764 1063.04568401 142.05906154 1063.04840074 98.34484543 1063.05087968 C76.38664557 1063.0521251 54.42844571 1063.05341007 32.47024585 1063.05473244 C29.15787737 1063.05493169 25.8455089 1063.05512981 22.53314042 1063.05532788 C-28.48927945 1063.05838886 -79.51169908 1063.06229954 -130.53411865 1063.06866455 C-132.18040122 1063.0688699 -132.18040122 1063.0688699 -133.85994203 1063.0690794 C-151.5559088 1063.07129184 -169.25187556 1063.07357542 -186.94784232 1063.07586844 C-237.90062116 1063.08246974 -288.85339982 1063.08854745 -339.80617905 1063.09113979 C-341.37697423 1063.0912201 -341.37697423 1063.0912201 -342.97950266 1063.09130202 C-365.96474604 1063.09246762 -388.94998942 1063.09336255 -411.93523283 1063.09400098 C-421.18289356 1063.09426261 -430.43055429 1063.09456323 -439.67821503 1063.09487724 C-440.69034847 1063.09491067 -441.70248191 1063.0949441 -442.74528606 1063.09497854 C-475.38821744 1063.09607603 -508.03114746 1063.10035064 -540.67407829 1063.10628221 C-573.54069093 1063.11223994 -606.40730225 1063.11510119 -639.27391545 1063.11362399 C-643.81002945 1063.11342089 -648.34614346 1063.11325352 -652.88225746 1063.11310768 C-653.77150825 1063.1130778 -654.66075904 1063.11304792 -655.57695683 1063.11301713 C-669.68918595 1063.11263566 -683.8014123 1063.11562813 -697.91364066 1063.12000986 C-711.7716532 1063.12424393 -725.62966212 1063.12494813 -739.487675 1063.12183181 C-747.62436464 1063.12011026 -755.76104283 1063.12116251 -763.89773115 1063.126217 C-769.92032469 1063.12965667 -775.94290468 1063.1279456 -781.9654985 1063.12413998 C-784.40026214 1063.12342015 -786.83502697 1063.1244112 -789.26978908 1063.12723524 C-792.55401601 1063.13080589 -795.83818226 1063.12830944 -799.1224072 1063.1241985 C-800.07685924 1063.12670737 -801.03131128 1063.12921625 -802.01468611 1063.13180115 C-802.88520737 1063.12944826 -803.75572864 1063.12709536 -804.65262933 1063.12467116 C-805.40150632 1063.12473517 -806.15038331 1063.12479918 -806.92195355 1063.12486512 C-809.0582208 1062.99650164 -810.94559639 1062.58508375 -813 1062 C-816.19198701 1049.65765023 -816.14389255 1037.0501454 -816.0625 1024.37109375 C-816.05769224 1022.91855049 -816.05352577 1021.46600501 -816.04992676 1020.01345825 C-816.04159431 1016.84205966 -816.03087043 1013.67068275 -816.01831055 1010.4992981 C-815.98395243 1001.46570674 -815.97344976 992.43208773 -815.96875 983.3984375 C-815.96820114 982.40303766 -815.96765228 981.40763783 -815.96708679 980.38207436 C-815.96157876 961.51708899 -816.07522337 942.65337793 -816.21875 923.7890625 C-816.22422726 923.06775847 -816.22970451 922.34645443 -816.23534775 921.6032927 C-816.34635512 907.03819567 -816.46609736 892.47317291 -816.59083331 877.90818745 C-816.82473031 850.58869617 -817.04707975 823.26993622 -817.0546875 795.94921875 C-817.05544785 794.93903749 -817.05620819 793.92885624 -817.05699158 792.88806343 C-817.09843445 710.15992111 -812.62874516 627.24272836 -720.1640625 372.3671875 C-717.90149587 368.55352799 -715.7142267 364.71151334 -713.59082031 360.8190918 C-707.97143392 350.53689548 -701.50320019 340.81507241 -695.02783203 331.05712891 C-692.98942324 327.98405464 -690.96103012 324.90454024 -688.93359375 321.82421875 C-676.96028517 303.68585041 -664.3177049 286.17105099 -651 269 C-650.51789063 268.37609375 -650.03578125 267.7521875 -649.5390625 267.109375 C-643.36101439 259.12228518 -636.99801154 251.32340522 -630.42236328 243.66064453 C-628.95183 241.94376033 -627.48903077 240.22051318 -626.02734375 238.49609375 C-620.37297974 231.84056932 -614.61343343 225.31119814 -608.66796875 218.9140625 C-607.29008152 217.40907879 -605.91510417 215.90032431 -604.59204102 214.34692383 C-599.17887193 207.99145924 -593.28519703 202.1340095 -587.37573242 196.24536133 C-585.56639067 194.44137915 -583.76245681 192.63211335 -581.95898438 190.82226562 C-576.14129805 185.00087236 -570.29227129 179.31259411 -564 174 C-562.8079059 172.95539153 -561.6177981 171.90851197 -560.4296875 170.859375 C-552.16620064 163.6144377 -543.75003323 156.64904286 -535 150 C-534.3311377 149.48920898 -533.66227539 148.97841797 -532.97314453 148.45214844 C-514.78476769 134.62179527 -495.72121255 121.46000405 -475.88671875 110.08691406 C-473.7796386 108.87305267 -471.68716919 107.63570192 -469.59375 106.3984375 C-394.70690139 62.49430543 -308.6299917 30.18833281 -136.02264404 -0.83856201 C-134.09542275 -0.9923838 -132.16901745 -1.1563295 -130.24267578 -1.32080078 C-87.34852995 -4.91572787 -42.76250497 -5.09159252 0 0 Z M-55 37 C-56.92604754 67.64335441 -58.07244996 98.31158038 -59 129 C-59.03136047 130.03263977 -59.06272095 131.06527954 -59.09503174 132.12921143 C-60.90662843 192.84563821 -60.77240386 253.77803462 -59.06964111 314.49584961 C-59.00053141 316.98089166 -58.93505174 319.46600488 -58.87060547 321.95117188 C-58.75535593 326.36353866 -58.63072645 330.77556658 -58.5 335.1875 C-58.46463135 336.40622803 -58.4292627 337.62495605 -58.39282227 338.88061523 C-58.80064659 348.50723389 -58.80064659 348.50723389 -56 357 C-54.47476125 357.1597218 -52.94236817 357.25166891 -51.41015625 357.31640625 C-49.92032227 357.37948975 -49.92032227 357.37948975 -48.40039062 357.44384766 C-47.29888672 357.48300293 -46.19738281 357.5221582 -45.0625 357.5625 C-43.90298828 357.6042334 -42.74347656 357.6459668 -41.54882812 357.68896484 C-21.13700836 358.34871364 -0.72781989 358.16612551 19.68314362 357.61689949 C37.89369109 357.13309904 56.10545248 356.82280731 74.32044411 356.56381893 C77.0092197 356.52543259 79.69798422 356.48630063 82.38674879 356.44715047 C94.1269005 356.27625124 105.86706892 356.10697446 117.60742188 355.95043945 C156.18582675 355.48838907 156.18582675 355.48838907 194.734375 353.99609375 C195.92026089 353.93344172 195.92026089 353.93344172 197.13010406 353.869524 C205.18588368 353.63971529 205.18588368 353.63971529 213 352 C213.46232404 346.75501352 212.02237164 343.49998047 209.375 339.125 C208.97893555 338.44719482 208.58287109 337.76938965 208.17480469 337.07104492 C207.28486256 335.55030671 206.38934407 334.03282264 205.48925781 332.51806641 C203.88674407 329.80850464 202.31263169 327.08373603 200.7421875 324.35546875 C175.58165032 280.73221431 146.60167844 240.15308353 115 201 C114.31679687 200.15308594 113.63359375 199.30617188 112.9296875 198.43359375 C104.55908769 188.12785527 95.92610844 178.05072951 87.00390625 168.21875 C85.18688018 166.20691607 83.40055608 164.17339566 81.625 162.125 C77.35805172 157.23457069 72.96969999 152.45662283 68.56298828 147.69238281 C67.52528889 146.56877579 66.48978463 145.44313729 65.45654297 144.31542969 C56.7250089 134.79060872 47.68819936 125.58253584 38.5625 116.4375 C38.00037811 115.87278992 37.43825623 115.30807983 36.85910034 114.72625732 C31.27441137 109.12128189 25.70134041 103.5443075 19.65014648 98.43579102 C17.84688298 96.86677302 16.17324044 95.20629272 14.5 93.5 C11.53264677 90.48586418 8.42654708 87.70082667 5.22265625 84.94140625 C2.67023117 82.71195939 0.18112486 80.41998618 -2.3125 78.125 C-6.74765646 74.07921256 -11.30958028 70.25316054 -15.98046875 66.484375 C-19.56656825 63.53384553 -23.06439589 60.4912964 -26.5625 57.4375 C-39.48215615 44.35133134 -39.48215615 44.35133134 -55 37 Z M-104.125 42.4140625 C-105.42432124 43.137461 -106.71544707 43.87569043 -108 44.625 C-108.70278076 45.02887939 -109.40556152 45.43275879 -110.12963867 45.84887695 C-129.50635067 57.19605973 -148.16506958 70.78504569 -165.109375 85.5078125 C-167.77418199 87.80530826 -170.49413717 90.00096212 -173.25 92.1875 C-187.41416184 103.80371771 -200.17351431 117.07565445 -213.125 130 C-213.85527405 130.72759521 -214.5855481 131.45519043 -215.33795166 132.20483398 C-217.46008397 134.32106867 -219.57833283 136.44111205 -221.6953125 138.5625 C-222.32711426 139.19232788 -222.95891602 139.82215576 -223.60986328 140.47106934 C-227.39445421 144.27503617 -230.9927208 148.19579685 -234.49743652 152.25932312 C-236.41570401 154.48158122 -238.3943018 156.6458742 -240.375 158.8125 C-244.27363397 163.13260791 -247.97503858 167.58071381 -251.6328125 172.10546875 C-253.68377296 174.61332635 -255.77396803 177.08061436 -257.88647461 179.53662109 C-263.73088708 186.34481223 -269.20163788 193.39570427 -274.61328125 200.55078125 C-276.87114326 203.53220774 -279.15962139 206.48531466 -281.48046875 209.41796875 C-288.66629316 218.5067743 -295.41736694 227.77653965 -301.8671875 237.40234375 C-304.14611193 240.79028323 -306.51634143 244.09610836 -308.93359375 247.38671875 C-312.86997369 252.76859057 -316.56413207 258.27884444 -320.1875 263.875 C-320.83187012 264.86749756 -321.47624023 265.85999512 -322.14013672 266.88256836 C-353.67163947 308.16120414 -353.67163947 308.16120414 -368.5402832 354.17407227 C-368.36198975 354.77662842 -368.18369629 355.37918457 -368 356 C-367.30097754 356.00423194 -366.60195507 356.00846388 -365.88175011 356.01282406 C-348.72180646 356.11699453 -331.56189762 356.22574465 -314.40201378 356.33933926 C-306.10298223 356.39417119 -297.80394649 356.44755969 -289.50488281 356.49731445 C-282.255334 356.54078106 -275.00581048 356.58719564 -267.75630152 356.63687855 C-263.93238559 356.66298914 -260.10847303 356.68780914 -256.28452682 356.70907402 C-238.68126366 356.80800397 -221.11465194 357.1368266 -203.52160645 357.77516174 C-195.84769082 358.05018973 -188.18262753 358.17623187 -180.50390625 358.203125 C-179.83092939 358.20595238 -179.15795254 358.20877975 -178.46458244 358.21169281 C-174.91445466 358.22629982 -171.36436355 358.23577095 -167.81420898 358.24023438 C-164.9813963 358.24462633 -162.14888689 358.25860384 -159.31616211 358.28125 C-139.01850955 358.44008286 -119.16628426 357.36635331 -99 355 C-98.02424045 352.07272136 -97.86972256 350.18793032 -97.85854149 347.1392746 C-97.85245035 346.13135062 -97.8463592 345.12342664 -97.84008348 344.08495951 C-97.83842325 342.97439235 -97.83676303 341.8638252 -97.83505249 340.71960449 C-97.82940895 339.54213323 -97.8237654 338.36466197 -97.81795084 337.15150976 C-97.80327976 333.87711171 -97.79306938 330.60273424 -97.78473234 327.32831502 C-97.77468032 323.7983047 -97.75894767 320.26831913 -97.74394226 316.73832703 C-97.71545309 309.81613192 -97.69234876 302.89392875 -97.6711645 295.97170782 C-97.65383215 290.33787711 -97.63459732 284.70405591 -97.61400223 279.07023621 C-97.61107363 278.26849829 -97.60814504 277.46676037 -97.6051277 276.64072737 C-97.59917042 275.01183385 -97.59320921 273.38294035 -97.58724411 271.75404686 C-97.53147025 256.45999035 -97.48183316 241.16591854 -97.4342391 225.8718347 C-97.39335135 212.78025891 -97.34708942 199.68871118 -97.296875 186.59716797 C-97.23852015 171.38287815 -97.18369109 156.16858202 -97.13427413 140.95426035 C-97.12897648 139.32644556 -97.12367387 137.69863079 -97.11836624 136.07081604 C-97.11575641 135.27001845 -97.11314657 134.46922085 -97.11045765 133.64415666 C-97.09192693 128.03249232 -97.07091383 122.4208405 -97.0489006 116.80918884 C-97.02204435 109.94699468 -96.99905634 103.0848 -96.98081563 96.22257733 C-96.97143334 92.72862646 -96.96044363 89.2347027 -96.94471169 85.74077415 C-96.88250628 71.12315464 -96.99089889 56.58675375 -98 42 C-101.06216291 40.60194185 -101.06216291 40.60194185 -104.125 42.4140625 Z M-197.18212891 48.99047852 C-198.21906891 49.2081337 -199.25600891 49.42578888 -200.32437134 49.65003967 C-201.44709442 49.89056564 -202.5698175 50.13109161 -203.7265625 50.37890625 C-204.90221771 50.62865707 -206.07787292 50.8784079 -207.28915405 51.13572693 C-209.79299486 51.66917167 -212.29637056 52.20480336 -214.79931641 52.74243164 C-218.53252834 53.5426779 -222.26804389 54.33137499 -226.00390625 55.11914062 C-248.31410699 59.8667727 -270.32457713 65.50592901 -292 72.625 C-292.76793884 72.8756723 -293.53587769 73.1263446 -294.3270874 73.38461304 C-367.27129299 97.26468075 -467.24549657 132.80301207 -520 190 C-514.02271918 201.73990792 -507.02512938 212.70558466 -499.6875 223.625 C-499.21485718 224.32850586 -498.74221436 225.03201172 -498.25524902 225.75683594 C-496.30514104 228.65757839 -494.35358834 231.55734198 -492.40023804 234.4559021 C-487.26111521 242.08526088 -482.17777337 249.7507187 -477.125 257.4375 C-476.68858185 258.10113556 -476.2521637 258.76477112 -475.80252075 259.44851685 C-469.24117778 269.4400995 -462.89638313 279.54215908 -456.68310547 289.75415039 C-451.74815026 297.84931919 -446.60303494 305.78769722 -441.38598633 313.703125 C-436.19175255 321.61973407 -431.30009245 329.69440504 -426.48828125 337.84765625 C-424.43522615 341.31449651 -422.27272291 344.67341495 -420 348 C-416.24409441 346.74803147 -415.89383155 345.63348307 -413.91796875 342.27734375 C-413.32322754 341.27670898 -412.72848633 340.27607422 -412.11572266 339.24511719 C-411.47940918 338.15360352 -410.8430957 337.06208984 -410.1875 335.9375 C-409.18662354 334.24415527 -409.18662354 334.24415527 -408.16552734 332.51660156 C-406.09859604 329.01788397 -404.04875971 325.50938967 -402 322 C-400.83206828 320.00648872 -399.6641015 318.01299798 -398.49609375 316.01953125 C-394.64573794 309.43546178 -390.81254985 302.84142073 -386.98120117 296.24627686 C-365.63133185 259.50000989 -342.7323503 224.02339123 -316.7890625 190.328125 C-315.2684445 188.34932953 -313.75608522 186.36485804 -312.25 184.375 C-299.59692859 167.72622183 -286.0525332 151.69772408 -272 136.21484375 C-270.20396471 134.22587498 -268.44046697 132.21436806 -266.6875 130.1875 C-257.61601391 119.80716863 -248.06839632 109.93572373 -238.27965736 100.23505783 C-236.24664361 98.21977194 -234.21748314 96.20067385 -232.18925476 94.18057251 C-226.4333328 88.44884032 -220.67142414 82.72315213 -214.90551758 77.00146484 C-211.35376501 73.47643179 -207.80685019 69.94659111 -204.2628994 66.41371536 C-202.91753503 65.07455764 -201.57027629 63.73730026 -200.22109413 62.40198898 C-198.34768994 60.54772065 -196.48045326 58.68744716 -194.61450195 56.82568359 C-194.05720398 56.27714722 -193.49990601 55.72861084 -192.92572021 55.16345215 C-190.55490213 52.78652 -189.07735105 51.23205314 -188 48 C-191.37040562 48 -193.92672993 48.30152172 -197.18212891 48.99047852 Z M27 49 C28.66555582 53.33255344 31.87433935 56.13554113 35.125 59.3125 C35.71321533 59.89354492 36.30143066 60.47458984 36.9074707 61.07324219 C40.48904239 64.58835172 44.13137434 68.00043225 47.9543457 71.25341797 C57.54109142 79.43859268 66.42664144 88.27218727 75.32348633 97.19311523 C77.6891419 99.56414563 80.06011514 101.92976422 82.43164062 104.29492188 C83.95865417 105.82259604 85.48535757 107.35058028 87.01171875 108.87890625 C87.70980148 109.57496475 88.40788422 110.27102325 89.12712097 110.98817444 C93.04831784 114.92787686 96.79464677 118.96292645 100.40779114 123.18760681 C103.12059416 126.27555955 106.06450309 129.12586246 109 132 C113.17489715 136.13190746 117.2444786 140.2698021 121.0390625 144.7578125 C123.89662658 148.02522641 126.89611009 151.15589999 129.875 154.3125 C134.79382859 159.54057113 139.45366631 164.85852779 143.93359375 170.46875 C146.00112782 173.00138153 148.16113341 175.4073116 150.375 177.8125 C155.37732043 183.31591643 159.9214609 189.14174782 164.46386719 195.02246094 C166.07011337 197.09026037 167.69347868 199.14367863 169.3203125 201.1953125 C195.63387938 234.48745273 217.26511687 271.18155472 238.26855469 307.97509766 C239.9424584 310.89947259 241.62912028 313.81606497 243.3203125 316.73046875 C249.25793825 326.98869585 254.83446183 337.33285251 260 348 C260.99727304 350.00136116 261.99634091 352.00183373 263 354 C263.66 354 264.32 354 265 354 C266.16207907 352.52032697 266.16207907 352.52032697 267.2578125 350.5390625 C267.71003174 349.77126465 268.16225098 349.0034668 268.62817383 348.21240234 C269.12212646 347.35855957 269.6160791 346.5047168 270.125 345.625 C271.21318668 343.77506593 272.30311757 341.92615706 273.39453125 340.078125 C273.97799316 339.08876953 274.56145508 338.09941406 275.16259766 337.08007812 C278.31072876 331.80279644 281.57033294 326.59481812 284.8125 321.375 C290.29054345 312.52801876 295.58850032 303.59761776 300.75 294.5625 C306.41584625 284.64892316 312.3431758 274.9587002 318.50537109 265.34814453 C321.18914257 261.13179138 323.81188743 256.87772518 326.4375 252.625 C326.97922852 251.7477124 327.52095703 250.8704248 328.07910156 249.96655273 C329.17541239 248.1909917 330.27160366 246.41535684 331.36767578 244.63964844 C332.96837443 242.05114203 334.57493177 239.46637612 336.18359375 236.8828125 C342.25236214 227.129302 348.25281402 217.33559909 354.1875 207.5 C354.8357373 206.43104492 355.48397461 205.36208984 356.15185547 204.26074219 C356.75529785 203.25688477 357.35874023 202.25302734 357.98046875 201.21875 C358.51567139 200.33123047 359.05087402 199.44371094 359.60229492 198.52929688 C360.96006279 196.07227066 362.01942088 193.62746811 363 191 C336.78952961 171.59300878 336.78952961 171.59300878 310 153 C309.15872559 152.43555176 308.31745117 151.87110352 307.45068359 151.28955078 C232.31996005 101.10799948 148.37272161 75.14400798 61.375 54.0625 C60.14120605 53.7631958 58.90741211 53.4638916 57.63623047 53.15551758 C47.44400414 50.7516632 37.50601559 48.64979948 27 49 Z M-554.22729492 219.984375 C-555.13584229 220.89703125 -556.04438965 221.8096875 -556.98046875 222.75 C-557.47154617 223.24153564 -557.9626236 223.73307129 -558.46858215 224.23950195 C-559.51243095 225.28637885 -560.5538412 226.33569193 -561.59301758 227.38720703 C-563.1586552 228.97082396 -564.73186675 230.54656768 -566.30664062 232.12109375 C-571.74407698 237.57794257 -576.99724421 243.13886483 -582 249 C-583.45445517 250.60768373 -584.91220895 252.21239715 -586.375 253.8125 C-590.21928245 258.07745308 -593.89526905 262.4486085 -597.50390625 266.9140625 C-599.31198156 269.14939817 -601.13112763 271.37188205 -602.96484375 273.5859375 C-624.80362198 300.04322909 -644.35926053 328.59876756 -662 358 C-595.34 358.33 -528.68 358.66 -460 359 C-462.65452122 354.35458786 -465.26220638 350.02311579 -468.25 345.625 C-472.86482036 338.78056721 -477.31679899 331.83812907 -481.75 324.875 C-487.37378929 316.0508415 -493.09143734 307.29978328 -498.91650391 298.60742188 C-512.52523392 278.28939783 -525.69255184 257.69150972 -538.2109375 236.68359375 C-538.8910791 235.54253174 -538.8910791 235.54253174 -539.58496094 234.37841797 C-540.58552972 232.69664759 -541.58330569 231.01321415 -542.57910156 229.32861328 C-543.36365723 228.00772705 -543.36365723 228.00772705 -544.1640625 226.66015625 C-544.63537598 225.86359619 -545.10668945 225.06703613 -545.59228516 224.24633789 C-546.96666519 222.05319348 -548.32602657 219.97574031 -550 218 C-552.24829157 217.77826106 -552.24829157 217.77826106 -554.22729492 219.984375 Z M392 221 C390.40591023 222.87882592 390.40591023 222.87882592 388.953125 225.40625 C388.36345947 226.36515137 387.77379395 227.32405273 387.16625977 228.31201172 C386.53389404 229.36404785 385.90152832 230.41608398 385.25 231.5 C383.88963702 233.72154654 382.52895123 235.94289543 381.16796875 238.1640625 C380.46645757 239.31662434 379.76512288 240.46929361 379.06396484 241.62207031 C375.94054737 246.73392319 372.74899817 251.80233872 369.5625 256.875 C356.28927808 278.1066188 343.26910628 299.46925253 330.53314209 321.02630615 C327.81220573 325.63091362 325.08071124 330.2291213 322.34375 334.82421875 C321.24519804 336.67048601 320.14684634 338.51687222 319.04858398 340.36331177 C318.02905387 342.07618764 317.00771728 343.78798788 315.98632812 345.49975586 C315.37208984 346.53366455 314.75785156 347.56757324 314.125 348.6328125 C313.59132813 349.52887207 313.05765625 350.42493164 312.5078125 351.34814453 C310.89570562 354.18342707 309.44898401 357.07859734 308 360 C308.7919684 359.93019456 309.58393681 359.86038912 310.39990425 359.78846836 C320.56078729 358.97006351 330.65894272 358.82851847 340.84716797 358.79467773 C342.70142829 358.78507629 344.55568653 358.77506497 346.40994263 358.76467896 C351.40067648 358.73786896 356.39141955 358.71673148 361.38218451 358.69667697 C366.613866 358.67466823 371.84551985 358.64735304 377.07717896 358.62062073 C386.96483559 358.57089361 396.85250773 358.52588145 406.74019444 358.48259836 C418.00513565 358.43305418 429.27004909 358.37820029 440.53496337 358.32291877 C463.68994962 358.20940585 486.84496256 358.10250111 510 358 C509.36626465 356.8867633 508.7325293 355.77352659 508.07958984 354.62655544 C507.72311371 354.0003598 507.36663757 353.37416415 506.99935913 352.72899288 C505.93480102 350.88719914 504.81262024 349.10299911 503.625 347.33813477 C502.99283569 346.39533409 502.99283569 346.39533409 502.34790039 345.43348694 C501.90309326 344.77610031 501.45828613 344.11871368 501 343.44140625 C500.52361084 342.73459213 500.04722168 342.02777802 499.55639648 341.29954529 C498.54914173 339.80697968 497.54057393 338.31529942 496.53076172 336.82446289 C495.02739804 334.60298529 493.53104042 332.37690913 492.03515625 330.15039062 C487.05689479 322.77020568 481.97255137 315.49024796 476.63671875 308.36328125 C476.1627063 307.72983292 475.68869385 307.09638458 475.20031738 306.44374084 C468.07101461 297.02143725 460.18259507 288.2064417 452.23046875 279.4765625 C450.35075455 277.38945427 448.50009554 275.28270825 446.65625 273.1640625 C443.2753562 269.29465229 439.82446188 265.50062466 436.3125 261.75 C435.68819092 261.08250732 435.06388184 260.41501465 434.4206543 259.72729492 C427.99931261 252.91371518 421.36919665 246.31189974 414.70239258 239.73925781 C413.88923584 238.93456055 413.0760791 238.12986328 412.23828125 237.30078125 C411.51680908 236.59091064 410.79533691 235.88104004 410.05200195 235.1496582 C407.87892963 232.87316781 405.95868358 230.46135459 404 228 C402.52393882 226.67742872 401.00277718 225.40317213 399.4375 224.1875 C398.67308594 223.58292969 397.90867187 222.97835937 397.12109375 222.35546875 C394.99821581 220.73075945 394.99821581 220.73075945 392 221 Z M-369 403 C-367.54927753 407.69964584 -364.78390647 410.72382271 -361.4375 414.1875 C-360.43530947 415.24264644 -359.43403552 416.29866407 -358.43359375 417.35546875 C-357.91029984 417.90483597 -357.38700592 418.45420319 -356.84785461 419.0202179 C-354.9798921 421.0215435 -353.18221788 423.07297542 -351.37768555 425.1315918 C-344.86055368 432.3798131 -337.91056939 439.20026004 -331.00230026 446.07286453 C-328.47685589 448.58540612 -325.95467061 451.1011801 -323.43325806 453.61776733 C-318.08332494 458.9563432 -312.72945746 464.29096244 -307.375 469.625 C-301.15805584 475.81826905 -294.94277577 482.01318944 -288.73170853 488.21235275 C-286.25722565 490.68039483 -283.77973107 493.14538551 -281.30209351 495.61026001 C-279.77465161 497.13406696 -278.2473513 498.65801585 -276.72021484 500.18212891 C-276.03951431 500.85766312 -275.35881378 501.53319733 -274.65748596 502.22920227 C-270.77212206 506.1141412 -267.076417 510.1090192 -263.49536991 514.27667713 C-261.56286162 516.5037754 -259.5243911 518.60510492 -257.44140625 520.69140625 C-256.64283203 521.49126953 -255.84425781 522.29113281 -255.02148438 523.11523438 C-254.21001953 523.92283203 -253.39855469 524.73042969 -252.5625 525.5625 C-251.75490234 526.37396484 -250.94730469 527.18542969 -250.11523438 528.02148438 C-249.31537109 528.82005859 -248.51550781 529.61863281 -247.69140625 530.44140625 C-246.98185791 531.14982666 -246.27230957 531.85824707 -245.54125977 532.58813477 C-243.49639284 534.52888223 -241.42199812 536.37469697 -239.28710938 538.21289062 C-234.55876509 542.3250974 -230.13880588 546.71734909 -225.71484375 551.15234375 C-224.85492325 552.01130753 -223.99500275 552.8702713 -223.10902405 553.75526428 C-221.30184139 555.56177015 -219.49590608 557.36952462 -217.69116211 559.1784668 C-214.94561607 561.9293681 -212.19477454 564.67489221 -209.44335938 567.41992188 C-207.6793668 569.18457532 -205.9156845 570.94953897 -204.15234375 572.71484375 C-203.33861801 573.52654526 -202.52489227 574.33824677 -201.68650818 575.17454529 C-198.27369244 578.60125131 -194.92411257 582.03074798 -191.78710938 585.71289062 C-186.29049782 592.09134419 -180.20937898 597.934051 -174.25390625 603.87890625 C-172.91529513 605.21819236 -171.57683237 606.55762676 -170.23851013 607.89720154 C-167.4437495 610.69342996 -164.64720514 613.48785859 -161.84936523 616.28100586 C-158.28099423 619.84368017 -154.71713236 623.41082597 -151.154603 626.97934055 C-148.39475402 629.74282 -145.63250678 632.50389242 -142.8695507 635.26426506 C-141.55523429 636.57791907 -140.24164731 637.89230333 -138.92883492 639.2074604 C-129.96468291 648.19140503 -129.96468291 648.19140503 -120.53211975 656.67683411 C-118.61781058 658.33006559 -116.88541515 660.10285367 -115.18359375 661.97265625 C-114.56419922 662.64490234 -113.94480469 663.31714844 -113.30664062 664.00976562 C-112.68982422 664.68716797 -112.07300781 665.36457031 -111.4375 666.0625 C-110.18995603 667.43181878 -108.93868285 668.79774984 -107.68359375 670.16015625 C-107.14275146 670.75449463 -106.60190918 671.34883301 -106.04467773 671.96118164 C-104.21502249 673.7855937 -102.33775326 675.45310014 -100.37220764 677.12742615 C-99.74097016 677.665904 -99.10973269 678.20438185 -98.4593668 678.75917721 C-97.97777575 679.16864873 -97.49618471 679.57812025 -97 680 C-97.00575546 678.70527771 -97.01151093 677.41055542 -97.0174408 676.07659912 C-97.05414116 663.55704854 -96.95849383 651.0424394 -96.78344727 638.52441406 C-96.7611848 636.91753778 -96.73892902 635.31066141 -96.71667957 633.70378494 C-96.68180129 631.19003881 -96.64690323 628.67629297 -96.61191994 626.1625483 C-95.97641683 580.25832231 -95.87336345 534.36119501 -95.92797339 488.45325327 C-95.9395411 478.54116791 -95.94474355 468.62908147 -95.94967639 458.71699095 C-95.95987765 438.47798639 -95.97722967 418.2389941 -96 398 C-128.39159878 397.95432311 -160.78318825 397.91895399 -193.17481191 397.89786934 C-197.00350422 397.89536809 -200.83219646 397.89277943 -204.66088867 397.89013672 C-205.42307602 397.8896121 -206.18526336 397.88908748 -206.9705473 397.88854696 C-219.29344085 397.87985681 -231.61631565 397.86409453 -243.9391981 397.84569441 C-256.59426858 397.82695661 -269.24932926 397.81587509 -281.90441304 397.81182301 C-289.70613808 397.80908599 -297.50781009 397.80045779 -305.30951879 397.78416707 C-311.30330007 397.77229301 -317.29703623 397.77109842 -323.29083061 397.77378464 C-325.74129817 397.77323629 -328.19176782 397.76928313 -330.64222336 397.76158905 C-350.8934258 396.39432886 -350.8934258 396.39432886 -369 403 Z M15.75355697 398.40981603 C13.62390371 398.44068605 11.4942391 398.47065833 9.36457253 398.50059319 C-4.14844006 398.69407379 -17.65545061 398.97220421 -31.16088867 399.47241211 C-32.18318479 399.50952332 -33.2054809 399.54663454 -34.25875568 399.58487034 C-41.19193931 399.86241272 -48.08990682 400.37367523 -55 401 C-56.21308612 408.86700152 -56.34638063 416.76996597 -56.55419922 424.71313477 C-56.57516151 425.47694556 -56.59612381 426.24075636 -56.61772132 427.02771294 C-57.07944665 444.06668611 -57.14830012 461.10078158 -57.1343255 478.14500117 C-57.13170924 482.37259263 -57.13416489 486.60018245 -57.13571167 490.82777405 C-57.13751073 497.93295693 -57.13519119 505.03812928 -57.13037109 512.14331055 C-57.12556405 519.30900762 -57.12553194 526.47468382 -57.13037109 533.64038086 C-57.17538873 583.88706119 -57.17538873 583.88706119 -56.5546875 634.12890625 C-56.53527225 635.17207441 -56.51585701 636.21524258 -56.49585342 637.2900219 C-56.27815542 648.55377722 -55.89082331 659.76756267 -55 671 C-48.51175355 666.4336485 -43.03084367 661.23982669 -37.5 655.5625 C-32.44251806 650.39542575 -27.37438444 645.36754759 -21.88476562 640.65991211 C-18.77460697 637.92079699 -15.89783349 634.96011724 -13 632 C-8.85736252 627.80929394 -4.69060073 623.77309372 -0.1875 619.96875 C3.60712491 616.55358758 7.15608522 612.88354643 10.7265625 609.23632812 C13.56837199 606.35234566 16.44116152 603.58667082 19.52734375 600.96484375 C25.51426349 595.7942566 31.02785616 590.12078425 36.60913086 584.52124023 C38.5579687 582.56704376 40.51209272 580.61824853 42.46679688 578.66992188 C48.01623178 573.12283364 53.49696553 567.59095371 58.58227539 561.60913086 C60.85924451 559.02474935 63.36829342 556.79574307 65.9375 554.5 C71.91722956 549.09457973 77.62224564 543.44826878 83.26733398 537.6953125 C87.11806803 533.7938396 91.08687571 530.11713284 95.23901367 526.53833008 C97.25461995 524.77757378 99.14132068 522.92506073 101 521 C103.51955389 518.44130741 106.08118782 516.01829389 108.8125 513.6875 C112.20195649 510.77749511 115.36450761 507.67839292 118.5 504.5 C121.53283829 501.42594766 124.57939426 498.4200074 127.875 495.625 C131.6046762 492.43362758 135.08746864 489.02566781 138.5625 485.5625 C139.09278809 485.03672363 139.62307617 484.51094727 140.16943359 483.96923828 C142.95769367 481.17066723 145.6164982 478.31162571 148.18359375 475.30859375 C153.45943363 469.21412679 159.29541818 463.64821654 165.02978516 457.99072266 C170.33889535 452.7463785 175.55674103 447.49293517 180.40820312 441.81445312 C183.65536722 438.11308448 187.2313157 434.72920474 190.75 431.2890625 C193.7430968 428.33605182 196.60947063 425.34053844 199.34765625 422.1484375 C204.2170073 416.50450978 209.60801911 411.3817039 214.94335938 406.18359375 C216.11415039 405.02923828 216.11415039 405.02923828 217.30859375 403.8515625 C218.37291626 402.81249756 218.37291626 402.81249756 219.45874023 401.75244141 C221.22013776 400.13866268 221.22013776 400.13866268 221 398 C200.15681905 397.97620307 179.31364046 397.95879909 158.47044849 397.94818783 C148.78359828 397.94312087 139.09675679 397.9362411 129.40991211 397.92456055 C91.52241332 397.87987361 53.63789918 397.86035417 15.75355697 398.40981603 Z M328 399.4375 C326.55602844 399.46683624 326.55602844 399.46683624 325.08288574 399.49676514 C305.40616073 399.46309705 305.40616073 399.46309705 286 402 C293.17581465 425.01498881 301.51149898 447.55990235 310.06899261 470.08777618 C324.74204049 508.72941024 337.97359377 547.33851678 349.31445312 587.1015625 C350.97045643 592.90547805 352.64614222 598.70356644 354.328125 604.5 C354.5891098 605.39944336 354.8500946 606.29888672 355.11898804 607.22558594 C355.62628986 608.97364817 356.13364316 610.72169546 356.64105225 612.46972656 C357.79194205 616.43740122 358.93916418 620.40613393 360.0859375 624.375 C360.28205627 625.05369141 360.47817505 625.73238281 360.68023682 626.43164062 C361.12022263 627.95440837 361.56012268 629.47720091 362 631 C364.238353 628.25993708 366.37646588 625.5789085 368.1640625 622.5234375 C368.55392334 621.86762695 368.94378418 621.21181641 369.34545898 620.53613281 C369.97883179 619.46637207 369.97883179 619.46637207 370.625 618.375 C377.16287071 607.51804917 384.23650248 597.02355545 391.30369568 586.50820923 C394.26422775 582.10214154 397.20987015 577.68636782 400.1484375 573.265625 C409.69527262 558.9061178 419.30865311 544.59943934 429.10015869 530.40515137 C455.96508768 491.49264157 455.96508768 491.49264157 481.38037109 451.62988281 C484.28746677 446.90946759 487.26972803 442.23693144 490.25 437.5625 C491.11407471 436.20511719 491.11407471 436.20511719 491.99560547 434.8203125 C494.69333735 430.58930394 497.40491821 426.36808554 500.14453125 422.1640625 C500.63856445 421.40536865 501.13259766 420.6466748 501.64160156 419.86499023 C502.54552911 418.47974457 503.45213552 417.09624054 504.36230469 415.71508789 C507.48368272 410.93740551 510.2819308 406.01714179 513 401 C451.39447215 398.91315552 389.62691055 398.15901027 328 399.4375 Z M-670 401 C-665.72148506 407.75625532 -661.40087362 414.4803388 -656.9921875 421.15234375 C-656.43747269 421.99346207 -655.88275787 422.83458038 -655.31123352 423.70118713 C-653.49999733 426.4471811 -651.68752195 429.19235458 -649.875 431.9375 C-648.58886511 433.88666368 -647.3028153 435.83588351 -646.0168457 437.78515625 C-644.01936692 440.81291843 -642.02182283 443.84063728 -640.02394104 446.86813354 C-635.50755322 453.71251663 -630.99627456 460.56024179 -626.48828125 467.41015625 C-608.4696359 494.7862702 -590.42798898 522.14722412 -572.01583862 549.26092529 C-563.7308326 561.46143008 -555.47950068 573.68430614 -547.27722168 585.94061279 C-546.07636008 587.73361845 -544.87387744 589.52553978 -543.66955566 591.31622314 C-535.37752897 603.64994622 -527.52277868 616.18205968 -520 629 C-517.682707 626.682707 -517.36500106 625.33781839 -516.51049805 622.20703125 C-516.09239616 620.69639603 -516.09239616 620.69639603 -515.66584778 619.15524292 C-515.21830391 617.50058517 -515.21830391 617.50058517 -514.76171875 615.8125 C-514.10668838 613.43894268 -513.45157413 611.06540851 -512.79638672 608.69189453 C-512.28105377 606.81077972 -512.28105377 606.81077972 -511.75531006 604.8916626 C-509.95891609 598.33579074 -508.13158799 591.78851928 -506.30078125 585.2421875 C-506.02543297 584.25714045 -506.02543297 584.25714045 -505.74452209 583.25219345 C-500.79711761 565.57319388 -495.40330294 548.04553483 -489.81646729 530.55944824 C-488.9761355 527.92518994 -488.1406922 525.28941882 -487.30615234 522.65332031 C-475.96453037 486.87284748 -463.00549766 451.83642553 -449.33276367 416.88696289 C-448.97690689 415.97404984 -448.62105011 415.06113678 -448.25440979 414.12055969 C-447.58392993 412.40093777 -446.91074596 410.68236701 -446.23448181 408.9650116 C-444.59675355 405.09836482 -444.59675355 405.09836482 -444 401 C-465.68155529 400.18143824 -487.32862598 399.84743823 -509.0244236 399.8656745 C-513.12952349 399.86828217 -517.23462165 399.86583767 -521.33972168 399.86428833 C-528.23071706 399.8624887 -535.12170159 399.86481224 -542.01269531 399.86962891 C-548.98991599 399.87445111 -555.96711527 399.87445737 -562.94433594 399.86962891 C-616.48112148 399.76673455 -616.48112148 399.76673455 -670 401 Z M545 423 C543.82149109 424.51278965 543.82149109 424.51278965 542.70703125 426.53125 C542.24965576 427.30952148 541.79228027 428.08779297 541.32104492 428.88964844 C540.8232251 429.75106445 540.32540527 430.61248047 539.8125 431.5 C538.72336654 433.35014444 537.63212974 435.19905191 536.5390625 437.046875 C535.96188477 438.02333984 535.38470703 438.99980469 534.79003906 440.00585938 C529.96726359 448.07276041 524.90579521 455.99548523 519.90576172 463.953125 C518.05049291 466.91927343 516.21197023 469.89508832 514.37890625 472.875 C501.27569888 494.1267921 487.29518806 514.77970161 472.52832031 534.91113281 C469.28308858 539.34662845 466.07711048 543.81069376 462.86474609 548.27001953 C460.22395802 551.93263994 457.57272409 555.58624757 454.890625 559.21875 C438.04716648 582.11964353 423.10215752 606.40389947 408.25 630.625 C402.74818944 639.59547279 397.17300552 648.51210016 391.5 657.375 C390.86610352 658.36580566 390.23220703 659.35661133 389.57910156 660.37744141 C387.00586726 664.38317701 384.42791578 668.38195102 381.75390625 672.32128906 C381.02042969 673.4037793 380.28695313 674.48626953 379.53125 675.6015625 C378.51901367 677.08003662 378.51901367 677.08003662 377.48632812 678.58837891 C375.82510856 680.81162459 375.82510856 680.81162459 376 683 C405.18152981 682.91806374 434.36301238 682.82603891 463.54446486 682.71994839 C466.99033633 682.70742966 470.43620811 682.69499686 473.88208008 682.68261719 C474.91108791 682.6789182 474.91108791 682.6789182 475.96088379 682.67514448 C487.06563405 682.63543094 498.17039447 682.60267739 509.27517427 682.57250018 C520.67141458 682.54137585 532.06760679 682.50261487 543.46380085 682.45720994 C549.86414101 682.43195147 556.26445071 682.41016816 562.66482735 682.39665604 C568.68857701 682.38382993 574.71222214 682.36176929 580.73591423 682.33261681 C582.94700364 682.32354539 585.15810987 682.31785181 587.36921692 682.31578636 C590.38843964 682.31246082 593.40736655 682.29697506 596.42652893 682.2784729 C597.30105715 682.28040763 598.17558537 682.28234237 599.07661444 682.28433573 C604.07928335 682.23851737 608.30979499 681.81321689 613 680 C625.34419611 661.48370584 612.46974732 614.49296249 608.45373535 594.19903564 C598.01398024 543.60259538 580.09498936 495.18780127 559.77984619 447.82073975 C559.06016943 446.1404801 558.34506069 444.45826587 557.63037109 442.77587891 C556.53468073 440.20014606 555.42794912 437.62972554 554.3125 435.0625 C553.87671631 434.04397949 553.87671631 434.04397949 553.43212891 433.00488281 C551.74580723 429.20588264 549.83970706 426.04791369 547 423 C546.34 423 545.68 423 545 423 Z M-407 426 C-441.09700254 494.37021698 -466.82654772 571.71132833 -481.875 646.5625 C-482.16201782 647.94961182 -482.16201782 647.94961182 -482.45483398 649.36474609 C-483.81456871 656.51740789 -484.45680414 663.67511209 -485.06298828 670.92553711 C-485.15383194 671.99181084 -485.2446756 673.05808456 -485.33827209 674.15666962 C-485.56073174 676.7709594 -485.78125438 679.38539727 -486 682 C-466.55821528 682.03091296 -447.1164301 682.04967753 -427.6746254 682.06108999 C-425.32185104 682.06249442 -422.96907677 682.0640135 -420.61630249 682.06554031 C-380.03879857 682.09080564 -339.46341666 682.00898347 -298.88671875 681.7421875 C-297.00730198 681.72994976 -295.1278852 681.71771412 -293.2484684 681.70548058 C-275.8400934 681.59161386 -258.43178353 681.47077156 -241.02359921 681.33059621 C-234.12925671 681.27524207 -227.23489139 681.22383085 -220.34049934 681.17504478 C-216.36217177 681.14662526 -212.38389147 681.11605121 -208.40563011 681.0794487 C-188.57262606 680.89787872 -168.81864915 681.16102418 -149 682 C-149.95951654 680.87258004 -150.92016213 679.74612091 -151.88128662 678.62007141 C-152.41612545 677.99267217 -152.95096428 677.36527292 -153.50201035 676.71886158 C-155.08553441 674.90185393 -156.73464353 673.22906742 -158.515625 671.60546875 C-159.12204834 671.04738525 -159.72847168 670.48930176 -160.35327148 669.91430664 C-160.97919189 669.34446045 -161.6051123 668.77461426 -162.25 668.1875 C-167.48569803 663.36752704 -172.59921741 658.48441523 -177.55859375 653.37890625 C-179.55424634 651.43434237 -181.57967971 649.62187275 -183.69140625 647.80859375 C-189.40510497 642.85165867 -194.63095445 637.41509764 -199.93359375 632.02734375 C-200.72894531 631.22425781 -201.52429688 630.42117188 -202.34375 629.59375 C-203.39852539 628.52157227 -203.39852539 628.52157227 -204.47460938 627.42773438 C-206.47667873 625.50308457 -208.50277974 623.69453769 -210.60887146 621.8891449 C-215.189381 617.89073794 -219.49108827 613.64953557 -223.78344727 609.34594727 C-224.62193207 608.50921478 -225.46041687 607.6724823 -226.3243103 606.81039429 C-229.0741832 604.06489508 -231.82041427 601.31578666 -234.56640625 598.56640625 C-236.48839299 596.64464273 -238.4109783 594.72347834 -240.33348083 592.80223083 C-244.3539203 588.78360426 -248.37226154 584.76288868 -252.3894043 580.7409668 C-257.01591429 576.10901589 -261.64601535 571.48067811 -266.27799755 566.85419995 C-270.27414261 562.86261117 -274.2683128 558.86905411 -278.26087612 554.87388271 C-280.63701195 552.49619789 -283.01399015 550.11937397 -285.39236641 547.74392891 C-288.04599434 545.09285442 -290.69637202 542.43857136 -293.34594727 539.78344727 C-294.12172623 539.00969254 -294.89750519 538.23593781 -295.6967926 537.43873596 C-299.76843216 533.35137058 -303.68216107 529.18370431 -307.43806362 524.80360317 C-310.15985485 521.66068944 -313.02410367 518.650441 -315.875 515.625 C-319.67761497 511.58636066 -323.43477032 507.51827147 -327.11938477 503.37133789 C-331.84994401 498.11055098 -336.77736001 493.07786157 -341.78515625 488.08203125 C-342.68568222 487.18054855 -343.58620819 486.27906586 -344.51402283 485.3502655 C-346.40274604 483.46086685 -348.2924205 481.57248584 -350.18383789 479.68579102 C-352.58631946 477.28902211 -354.98425881 474.88776676 -357.38089848 472.48515797 C-359.70070577 470.1608352 -362.02435539 467.84036119 -364.34765625 465.51953125 C-365.19683121 464.66833206 -366.04600616 463.81713287 -366.9209137 462.94013977 C-371.26936659 458.60858372 -375.68187878 454.42051284 -380.34481812 450.4281311 C-385.50684605 445.97420811 -390.20454461 440.99442086 -394.625 435.8125 C-397.74368443 432.18493932 -401.05953745 428.74480769 -405 426 C-405.66 426 -406.32 426 -407 426 Z M251.43115234 427.35766602 C250.82223145 427.98342529 250.21331055 428.60918457 249.5859375 429.25390625 C248.56693359 430.2893457 248.56693359 430.2893457 247.52734375 431.34570312 C246.46193359 432.44301758 246.46193359 432.44301758 245.375 433.5625 C237.52413118 441.61221822 237.52413118 441.61221822 233.3515625 445.15234375 C226.87875893 450.71736641 220.99878962 456.9355302 215 463 C201.30262653 476.84734471 201.30262653 476.84734471 195.1640625 482.05859375 C189.53459494 487.10885617 184.31677158 492.62501559 179 498 C165.27348843 511.87680185 165.27348843 511.87680185 159.1328125 517.08984375 C153.68527636 521.96868107 148.63990499 527.30154442 143.5 532.5 C130.33393199 545.81604763 130.33393199 545.81604763 126.03125 549.46875 C119.64474317 554.89761801 113.88989837 561.04561369 108 567 C94.27348843 580.87680185 94.27348843 580.87680185 88.1328125 586.08984375 C82.68527636 590.96868107 77.63990499 596.30154442 72.5 601.5 C59.33393199 614.81604763 59.33393199 614.81604763 55.03125 618.46875 C48.64474317 623.89761801 42.88989837 630.04561369 37 636 C23.14341033 650.00830415 23.14341033 650.00830415 17.04296875 655.18847656 C12.70682382 659.03338519 8.65819767 663.19470198 4.56982422 667.29980469 C2.97869157 668.89638134 1.38217285 670.48743611 -0.21484375 672.078125 C-1.226884 673.09082465 -2.23861476 674.1038337 -3.25 675.1171875 C-4.61898437 676.48786377 -4.61898437 676.48786377 -6.015625 677.88623047 C-8.11407326 679.63829996 -8.11407326 679.63829996 -8 681 C102.88 681 213.76 681 328 681 C328 658.60989341 322.49759724 636.59724156 317 615 C316.82746704 614.31824707 316.65493408 613.63649414 316.47717285 612.93408203 C304.6918499 566.44316446 289.20274702 520.9657895 274.14047241 475.45858765 C272.95452689 471.86209861 271.78007658 468.26198115 270.60668945 464.66137695 C269.81998244 462.26378271 269.0331222 459.86623875 268.24609375 457.46875 C267.89447174 456.38152145 267.54284973 455.29429291 267.18057251 454.17411804 C263.94718023 444.36801794 259.72357133 435.16797179 255 426 C252.90626573 425.78187356 252.90626573 425.78187356 251.43115234 427.35766602 Z M-701 427 C-741.68807508 510.38447893 -764.50322838 588.53551219 -773 682 C-694.46 682 -615.92 682 -535 682 C-539.08979836 673.77470079 -539.08979836 673.77470079 -543.609375 665.8828125 C-544.27267822 664.79597168 -544.93598145 663.70913086 -545.61938477 662.58935547 C-546.3295404 661.43453991 -547.03974687 660.2797556 -547.75 659.125 C-548.50163805 657.89625129 -549.25284968 656.66724165 -550.00366211 655.43798828 C-551.55994216 652.89062988 -553.11803008 650.34439036 -554.67724609 647.79882812 C-556.90537891 644.15830223 -559.12101815 640.51031803 -561.33203125 636.859375 C-561.68265121 636.28044998 -562.03327118 635.70152496 -562.39451599 635.10505676 C-563.09904078 633.94175276 -563.8035645 632.77844812 -564.50808716 631.61514282 C-576.33009984 612.10476729 -588.23435791 592.64450075 -600.47851562 573.39550781 C-602.1101812 570.82652471 -603.73501193 568.25329353 -605.359375 565.6796875 C-620.03102669 542.47333111 -635.49214902 519.8393385 -651.24609375 497.359375 C-677.111928 460.44146376 -677.111928 460.44146376 -688.71582031 441.69433594 C-693.42295159 434.02811065 -693.42295159 434.02811065 -699 427 C-699.66 427 -700.32 427 -701 427 Z M-57 723 C-56.99777939 723.56024872 -56.99555878 724.12049744 -56.99327087 724.69772339 C-56.96993884 730.90264185 -56.95560666 737.10754706 -56.94506836 743.3125 C-56.94024338 745.58366402 -56.93360012 747.85482541 -56.92456055 750.12597656 C-56.70496421 807.01434484 -58.61765714 863.9258565 -59.99251556 920.7926712 C-60.31823567 934.26572324 -60.64333232 947.73878913 -60.96453851 961.21194965 C-61.09254467 966.57682837 -61.22226322 971.94166184 -61.35341465 977.30646455 C-61.43429937 980.62966823 -61.51368441 983.95290658 -61.59268761 987.27615547 C-61.62914407 988.79701111 -61.66620268 990.31785247 -61.7039566 991.83867645 C-61.94492312 1001.56152184 -62.04440475 1011.27451606 -62 1021 C-56.24636909 1016.89118925 -51.05477549 1012.37167131 -45.859375 1007.578125 C-42.24212716 1004.31667203 -38.47264248 1001.27295542 -34.68359375 998.21484375 C-32.05291443 996.04367173 -29.52057576 993.79758643 -27 991.5 C-22.70008209 987.58108748 -18.24080453 983.90829131 -13.71875 980.25 C-11.07852271 978.06498431 -8.5327028 975.80828609 -6 973.5 C-2.68010514 970.47717579 0.69764112 967.57487839 4.1875 964.75 C8.66214181 961.12737038 13.03394896 957.40525597 17.375 953.625 C23.66969944 948.14408516 30.01502218 942.72872516 36.3984375 937.3515625 C38.03928736 935.9668453 39.67638805 934.57781109 41.3125 933.1875 C46.31946389 928.93485876 51.33897129 924.70552114 56.4375 920.5625 C60.68392382 917.10725849 64.85296294 913.57302166 69 910 C74.01181013 905.68190352 79.08218184 901.45093474 84.21875 897.28125 C87.36383693 894.70157196 90.46483049 892.0737186 93.5625 889.4375 C97.30851174 886.25082276 101.07806211 883.11208863 104.9375 880.0625 C110.82757613 875.39040407 116.49972222 870.47150413 122.18994141 865.56005859 C124.52457752 863.5478756 126.86665721 861.54447883 129.20898438 859.54125977 C139.83595387 850.44979731 150.4546896 841.35003135 160.82421875 831.96484375 C166.90823831 826.47065733 173.14586166 821.15414243 179.37402344 815.82495117 C183.76380584 812.06650435 188.13605359 808.28839994 192.5 804.5 C199.06450172 798.80268388 205.65696499 793.13884937 212.26171875 787.48828125 C214.01952918 785.98327951 215.77564446 784.47632297 217.53125 782.96875 C223.70367013 777.66945574 229.89261071 772.3910263 236.10791016 767.14208984 C240.06465779 763.79793816 244.00517499 760.43532789 247.9375 757.0625 C248.51669189 756.56580811 249.09588379 756.06911621 249.69262695 755.55737305 C252.66756041 753.00489582 255.6397708 750.44930018 258.609375 747.890625 C264.84502887 742.52350561 271.12836081 737.23476654 277.51171875 732.04296875 C282.8760007 727.65828649 282.8760007 727.65828649 288 723 C288 722.67 288 722.34 288 722 C152.45449669 720.79164071 152.45449669 720.79164071 -57 723 Z M-441 722 C-441.95244039 725.99310068 -441.95244039 725.99310068 -441.2421875 729.87890625 C-432.79991049 740.27496737 -423.15771805 749.14567528 -412.5390625 757.25390625 C-408.8966713 760.04654025 -405.40839957 762.99824506 -401.9375 766 C-401.35822754 766.50080078 -400.77895508 767.00160156 -400.18212891 767.51757812 C-399.02343308 768.52028943 -397.86506456 769.52337909 -396.70703125 770.52685547 C-393.96694612 772.89151131 -391.2030752 775.22775562 -388.4375 777.5625 C-387.90648682 778.01093262 -387.37547363 778.45936523 -386.82836914 778.92138672 C-385.75819685 779.82510223 -384.68796576 780.7287481 -383.61767578 781.63232422 C-381.97091021 783.02459417 -380.32689933 784.42005473 -378.68359375 785.81640625 C-372.77441321 790.83455441 -366.82529365 795.79336564 -360.8125 800.6875 C-357.68200088 803.26146594 -354.5883659 805.87579466 -351.5 808.5 C-346.72592153 812.55434364 -341.91120385 816.55221512 -337.0546875 820.5078125 C-333.31846244 823.55603704 -329.59629279 826.62107745 -325.875 829.6875 C-325.15159424 830.28336914 -324.42818848 830.87923828 -323.68286133 831.49316406 C-320.01789072 834.51227689 -316.35402097 837.53271713 -312.69140625 840.5546875 C-303.81980497 847.87195414 -294.91698586 855.14907161 -285.98388672 862.39111328 C-283.32172108 864.55006868 -280.6616235 866.71156314 -278.00170898 868.87329102 C-276.66936852 869.95603093 -275.33684952 871.03855119 -274.00415039 872.12084961 C-270.64313746 874.85051659 -267.28437516 877.58287451 -263.9296875 880.3203125 C-255.91701457 886.85407824 -247.84880656 893.30706445 -239.70019531 899.67041016 C-237.44858075 901.43122189 -235.20318479 903.19987328 -232.95751953 904.96826172 C-226.98855133 909.66730932 -220.99869877 914.33897695 -215 919 C-202.4971415 928.71948092 -190.0687405 938.50834633 -177.80419922 948.52783203 C-176.21726954 949.82271511 -174.62651263 951.11290478 -173.03515625 952.40234375 C-163.76453064 959.93047291 -154.64773331 967.65164495 -145.8125 975.6875 C-141.64846521 979.46559986 -137.34233062 983.02655884 -132.96875 986.55859375 C-130.2693969 988.77845649 -127.63122672 991.05051887 -124.99975586 993.34936523 C-113.39698423 1004.97635313 -113.39698423 1004.97635313 -100 1012 C-97.87836853 994.4965404 -98.34648567 976.60796019 -98 959 C-97.97808342 957.89583363 -97.95616684 956.79166725 -97.93358612 955.65404129 C-97.04385745 910.51856563 -96.84068273 865.39624359 -96.87143111 820.25301802 C-96.87582691 813.03140147 -96.87262751 805.80980201 -96.8678025 798.5881865 C-96.86325703 791.49292231 -96.86262458 784.39766552 -96.86524117 777.30240035 C-96.86678207 773.12117462 -96.8670567 768.93996059 -96.86370468 764.75873566 C-96.86080089 760.87392692 -96.86284726 756.98915059 -96.86859894 753.10434532 C-96.86990835 751.69350679 -96.86956384 750.28266546 -96.86733627 748.87182808 C-96.85537875 740.52664392 -97.1528475 732.30412072 -98 724 C-117.08637339 723.16271797 -136.16748404 722.69467099 -155.26953125 722.44140625 C-156.03373139 722.43098148 -156.79793152 722.4205567 -157.58528924 722.40981603 C-209.1144715 721.70983972 -260.65170628 721.88541148 -312.18449318 721.92797244 C-322.03176771 721.93601519 -331.87904126 721.94139955 -341.72631836 721.94506836 C-342.78104136 721.94546244 -342.78104136 721.94546244 -343.8570719 721.94586449 C-347.38791955 721.94717043 -350.91876721 721.94843392 -354.44961488 721.94967639 C-383.29974803 721.95988245 -412.14987391 721.9774259 -441 722 Z M-760 723 C-756.20361561 728.06184585 -752.45136956 732.93659797 -748.3125 737.6875 C-747.2574489 738.90854009 -746.20276966 740.12990157 -745.1484375 741.3515625 C-744.62217773 741.96032227 -744.09591797 742.56908203 -743.55371094 743.19628906 C-741.164184 745.97030305 -738.79952411 748.76506407 -736.4375 751.5625 C-735.98802002 752.09447998 -735.53854004 752.62645996 -735.07543945 753.17456055 C-734.16978181 754.24662648 -733.26426378 755.31881038 -732.35888672 756.39111328 C-730.07453814 759.09572289 -727.78710492 761.79772127 -725.5 764.5 C-724.58331874 765.58332099 -723.66665207 766.66665432 -722.75 767.75 C-722.29625 768.28625 -721.8425 768.8225 -721.375 769.375 C-719.3125 771.8125 -719.3125 771.8125 -717.25 774.25 C-716.79608887 774.78641113 -716.34217773 775.32282227 -715.87451172 775.87548828 C-714.95935587 776.95709521 -714.0443165 778.03880069 -713.12939453 779.12060547 C-710.81556522 781.85617939 -708.49963529 784.58992474 -706.1796875 787.3203125 C-701.94920376 792.30314347 -697.7414632 797.29702715 -693.625 802.375 C-689.45778876 807.49813067 -685.13687543 812.47594928 -680.79736328 817.45263672 C-676.89590946 821.93731517 -673.11522093 826.50472708 -669.375 831.125 C-666.47504125 834.63547639 -663.49241862 838.06832727 -660.5 841.5 C-656.02465484 846.63227656 -651.65992874 851.83185274 -647.375 857.125 C-644.4750403 860.63547753 -641.49238805 864.06829935 -638.5 867.5 C-634.00252023 872.65851311 -629.61004548 877.88157094 -625.30078125 883.19921875 C-622.11899428 887.07246368 -618.85131386 890.86902385 -615.58178711 894.66821289 C-612.20174708 898.59599165 -608.84195115 902.53977279 -605.5 906.5 C-601.70488677 910.99419507 -597.89203768 915.47259875 -594.0625 919.9375 C-593.56218262 920.52104248 -593.06186523 921.10458496 -592.54638672 921.70581055 C-590.05745266 924.60716682 -587.56479318 927.50521695 -585.06640625 930.3984375 C-573.66867792 943.61198505 -562.55821804 956.94046578 -552.35400391 971.1081543 C-551.7976123 971.87812744 -551.2412207 972.64810059 -550.66796875 973.44140625 C-549.92969849 974.47309937 -549.92969849 974.47309937 -549.17651367 975.52563477 C-548.78826416 976.01217529 -548.40001465 976.49871582 -548 977 C-547.67 977 -547.34 977 -547 977 C-547.0439666 976.15443794 -547.0439666 976.15443794 -547.08882141 975.29179382 C-547.98795094 957.4650464 -548.20266894 939.65853308 -548.1875 921.8125 C-548.18709969 920.75167646 -548.18709969 920.75167646 -548.18669128 919.66942215 C-548.1746178 894.07268527 -547.70414862 868.54723507 -546 843 C-545.90878876 841.63068329 -545.90878876 841.63068329 -545.81573486 840.23370361 C-543.61919653 807.81978834 -539.95557838 775.56915502 -536.07836914 743.3210907 C-535.95107422 742.25373184 -535.8237793 741.18637299 -535.69262695 740.08666992 C-535.58255814 739.17221603 -535.47248932 738.25776215 -535.35908508 737.31559753 C-534.84297775 732.55014146 -534.43396701 727.77363708 -534 723 C-608.58 723 -683.16 723 -760 723 Z M448.75 723.5 C447.48115817 723.50896057 447.48115817 723.50896057 446.18668318 723.51810217 C424.12442036 723.67400139 402.06219384 723.83462454 380 724 C379.92600777 730.00541276 380.15728902 735.839402 380.77856445 741.80957031 C380.86157303 742.64364033 380.9445816 743.47771034 381.03010559 744.33705521 C381.20997434 746.14036305 381.39178059 747.9434785 381.57534218 749.74641418 C381.97196626 753.64697792 382.35756788 757.54861068 382.74399853 761.45019531 C382.948989 763.51884594 383.15446246 765.58744875 383.36039448 767.65600586 C387.08498988 805.06979925 390.64406207 842.41213917 392 880 C392.05000153 881.31895264 392.05000153 881.31895264 392.10101318 882.66455078 C393.31457495 914.76262781 393.11487101 946.88456738 393 979 C395.78086233 976.26047243 398.49130024 973.54122038 400.9453125 970.50390625 C401.45892334 969.8704126 401.97253418 969.23691895 402.50170898 968.58422852 C403.30523804 967.5834729 403.30523804 967.5834729 404.125 966.5625 C404.97976929 965.50470337 404.97976929 965.50470337 405.85180664 964.42553711 C409.87121625 959.43918613 413.82793686 954.40582329 417.76855469 949.35717773 C422.55030963 943.25469041 427.49740503 937.29078921 432.4375 931.31640625 C439.99626177 922.1718758 447.46116206 912.94978403 454.85546875 903.671875 C457.65594713 900.1827544 460.48571822 896.71781898 463.3125 893.25 C467.47248876 888.14619356 471.57967234 883.00758312 475.625 877.8125 C479.65676901 872.63988535 483.82343899 867.60393979 488.08203125 862.61694336 C491.4859102 858.62680006 494.78391655 854.5656938 498.04296875 850.45703125 C501.64705131 845.93214517 505.33105866 841.47231298 509 837 C510.39596765 835.29177642 511.79179898 833.58344143 513.1875 831.875 C514.79099204 829.9161092 516.39504239 827.95768918 518 826 C518.52255371 825.36255859 519.04510742 824.72511719 519.58349609 824.06835938 C526.05737201 816.17618503 532.55439345 808.30777538 539.16748047 800.53173828 C542.73028404 796.33671818 546.21325575 792.08085722 549.6875 787.8125 C552.7243277 784.1190609 555.81960955 780.47701514 558.91625977 776.83374023 C561.7954532 773.44045891 564.63204237 770.01732214 567.4375 766.5625 C572.32851874 760.55751258 577.37445656 754.69125173 582.4296875 748.82470703 C584.01873558 746.9782292 585.60379026 745.12840155 587.1875 743.27734375 C587.96758423 742.36577515 587.96758423 742.36577515 588.76342773 741.43579102 C589.784162 740.24260173 590.80451641 739.04908737 591.82446289 737.85522461 C595.12235023 734.00171795 598.4704449 730.19903654 601.890625 726.453125 C603.20227181 725.03975104 603.20227181 725.03975104 603 723 C593.39585337 722.96591506 583.79169733 722.94800037 574.1875 722.9375 C573.4106636 722.93664398 572.63382721 722.93578796 571.83345032 722.93490601 C530.80469394 722.89546463 489.7774419 723.20995345 448.75 723.5 Z M-495 735 C-496.92936318 742.82843377 -497.98091524 750.68149955 -498.875 758.6875 C-498.95959473 759.44405884 -499.04418945 760.20061768 -499.13134766 760.98010254 C-501.83846101 785.66430542 -503.184433 810.47032924 -504.60896492 835.25486565 C-504.87258214 839.83220564 -505.14385497 844.40901846 -505.42091084 848.98556423 C-507.76851923 887.76888462 -509.37837392 926.4513051 -509.3125 965.3125 C-509.31137711 966.15417095 -509.31025421 966.9958419 -509.30909729 967.86301804 C-510.07089059 996.6033249 -510.07089059 996.6033249 -507 1025 C-498.05003547 1026.82119557 -489.41935119 1027.28182487 -480.30755615 1027.24050903 C-478.8576434 1027.24138302 -477.40773095 1027.24313754 -475.95782018 1027.24568737 C-472.00574188 1027.25012703 -468.05377345 1027.2422042 -464.10170913 1027.23213124 C-459.8278517 1027.22344988 -455.55399988 1027.2264202 -451.28013611 1027.22793579 C-443.88603003 1027.22898169 -436.4919594 1027.22273601 -429.09786224 1027.21146011 C-418.40739986 1027.19516797 -407.71695452 1027.18999331 -397.02648106 1027.18748413 C-379.67959095 1027.18311285 -362.33271971 1027.16981914 -344.98583984 1027.15087891 C-328.1404632 1027.13250542 -311.29509168 1027.11835611 -294.44970703 1027.10986328 C-292.89074387 1027.10907511 -292.89074387 1027.10907511 -291.3002865 1027.10827102 C-286.08609328 1027.10566084 -280.87190002 1027.10313345 -275.65770674 1027.10064721 C-232.43845809 1027.07993236 -189.21923002 1027.04472229 -146 1027 C-148.37347279 1023.98175903 -150.53268236 1021.35176478 -153.6171875 1019.0546875 C-154.29918213 1018.54099609 -154.98117676 1018.02730469 -155.68383789 1017.49804688 C-156.40692139 1016.96244141 -157.13000488 1016.42683594 -157.875 1015.875 C-159.4133131 1014.71687959 -160.95106592 1013.55801463 -162.48828125 1012.3984375 C-163.25221191 1011.82448242 -164.01614258 1011.25052734 -164.80322266 1010.65917969 C-167.91708492 1008.30734506 -170.99577525 1005.91284647 -174.0625 1003.5 C-174.90131714 1002.84052368 -174.90131714 1002.84052368 -175.75708008 1002.16772461 C-180.91953591 998.09210158 -186.0100719 993.92920359 -191.10522461 989.77001953 C-196.26918203 985.56605662 -201.51549685 981.48461012 -206.80859375 977.4453125 C-210.1263102 974.91141293 -213.40891466 972.33423081 -216.6875 969.75 C-222.10866771 965.4788233 -227.54949115 961.2336671 -233 957 C-239.56547243 951.89905317 -246.11644116 946.78045367 -252.6484375 941.63671875 C-254.8999582 939.86372825 -257.15536764 938.09587245 -259.4140625 936.33203125 C-266.34771924 930.91204632 -273.21012845 925.41342206 -280.02539062 919.84521484 C-284.43018076 916.25323879 -288.88562324 912.73537656 -293.375 909.25 C-298.30602338 905.41269727 -302.99049774 901.39367416 -307.59375 897.1640625 C-310.06481506 894.94170854 -312.60366367 892.83986762 -315.1875 890.75 C-320.95918726 886.07574623 -326.55658735 881.21701507 -332.15625 876.33984375 C-335.85487799 873.11945435 -339.58159553 869.93287356 -343.3125 866.75 C-347.32359256 863.32573395 -351.28655706 859.86272725 -355.1875 856.3125 C-358.45804605 853.33975977 -361.80235614 850.51514086 -365.25 847.75 C-371.01441228 843.08941135 -376.38851953 838.06220719 -381.79296875 832.99609375 C-386.4639332 828.61883286 -391.29747541 824.4485711 -396.171875 820.30078125 C-397.36486315 819.28418244 -398.55756205 818.26724412 -399.75 817.25 C-400.65552612 816.477771 -400.65552612 816.477771 -401.5793457 815.68994141 C-405.52485406 812.30897905 -409.3811709 808.84895643 -413.1875 805.3125 C-416.83413376 801.92475627 -420.55617401 798.68102204 -424.4375 795.5625 C-429.85412448 791.20258694 -434.91938296 786.52524121 -440 781.78515625 C-442.97082527 779.01528768 -446.01048097 776.33388015 -449.078125 773.671875 C-454.45206577 768.99698344 -459.73313267 764.23811926 -464.85546875 759.2890625 C-478.49222745 744.2271806 -478.49222745 744.2271806 -495 735 Z M337 735 C325.27402048 743.45420017 313.89146955 752.19093949 302.81738281 761.48242188 C300.35818378 763.53593896 297.86667156 765.54858257 295.375 767.5625 C285.45894444 775.67015637 275.85820766 784.1506129 266.4140625 792.80078125 C263.65043564 795.31845426 260.84033532 797.77734586 258.01953125 800.23046875 C254.8385427 803.01767922 251.7022769 805.8540428 248.5625 808.6875 C246.08734669 810.92117493 243.60631688 813.14817716 241.125 815.375 C237.39714482 818.72890106 233.69303836 822.10785847 230 825.5 C225.49938818 829.63391652 220.97638853 833.74145876 216.42578125 837.8203125 C214.7924607 839.28793386 213.16494457 840.76203787 211.54296875 842.2421875 C207.32799812 846.07880643 203.06244228 849.79703363 198.625 853.375 C194.61175889 856.6195076 190.77564046 859.9872668 187 863.5 C182.367489 867.8099377 177.5787805 871.8506094 172.6484375 875.8203125 C170.02724881 877.97757399 167.50845719 880.21311 165 882.5 C160.80270966 886.32170863 156.46289769 889.91474189 152.05078125 893.484375 C148.47943252 896.42925155 144.98791208 899.45723198 141.5 902.5 C136.32085766 907.01494996 131.08163603 911.43238387 125.7421875 915.7578125 C122.62999565 918.30253917 119.56282516 920.89628508 116.5 923.5 C111.73377975 927.54787979 106.92714691 931.53958943 102.078125 935.48828125 C98.20819872 938.6461018 94.35415572 941.82296555 90.5 945 C84.01071971 950.3465273 77.51584403 955.68584852 71 961 C70.40896484 961.48291504 69.81792969 961.96583008 69.20898438 962.46337891 C62.12630009 968.24875745 55.02738054 974.00498779 47.8125 979.625 C42.72644232 983.58870134 37.78366342 987.68989892 32.88500977 991.88208008 C28.52563498 995.59605971 24.04922462 999.13801376 19.52709961 1002.65087891 C13.90603507 1007.03361461 8.41735916 1011.57140696 2.94824219 1016.1418457 C-1.24669846 1019.62875192 -5.52269199 1022.88281294 -10 1026 C-7.04934634 1027.47532683 -4.47263512 1026.6132878 -1.28659058 1026.25981331 C5.93040882 1025.68929123 13.19881556 1025.92376644 20.43359375 1025.97827148 C22.29886637 1025.98843504 24.16414161 1025.99812639 26.02941895 1026.00738525 C30.04843563 1026.02834086 34.06741369 1026.05261437 38.08639526 1026.07946587 C44.54723494 1026.12258118 51.00810401 1026.15805267 57.46899414 1026.19264221 C67.80917928 1026.24887839 78.14932836 1026.31005223 88.48947239 1026.37336355 C170.36135988 1026.87920431 170.36135988 1026.87920431 252.23439407 1027.09470868 C254.98763734 1027.09757823 257.7408707 1027.10232133 260.49411011 1027.10769463 C279.89658711 1027.14321553 299.28574848 1027.00391125 318.68359375 1026.55639648 C319.56026262 1026.5369303 320.4369315 1026.51746411 321.34016609 1026.49740803 C331.58923519 1026.26408727 341.78075986 1025.8540554 352 1025 C352.5143424 951.46942218 352.5143424 951.46942218 350 878 C349.9321228 876.80006409 349.86424561 875.60012817 349.79431152 874.36383057 C348.75347315 855.96895775 347.60394377 837.58216277 346.40196514 819.1971941 C346.04054695 813.65534845 345.6914453 808.11277598 345.34519958 802.56996441 C344.96630125 796.51088485 344.57726638 790.45249812 344.18426514 784.39431763 C344.02241347 781.88105307 343.86334098 779.36760766 343.70733643 776.85397339 C343.00860648 765.65082595 342.29275786 754.49305536 340.50390625 743.40234375 C340.38514633 742.65376602 340.26638641 741.90518829 340.14402771 741.13392639 C339.83778049 739.40759717 339.4294199 737.69988191 339 736 C338.34 735.67 337.68 735.34 337 735 Z M-776 767 C-775.98969254 767.61682144 -775.97938507 768.23364288 -775.96876526 768.86915588 C-775.82208993 777.76677495 -775.68961186 786.66458365 -775.5625 795.5625 C-775.55133148 796.34092003 -775.54016296 797.11934006 -775.52865601 797.92134857 C-775.14891505 824.6030889 -774.92720503 851.28528661 -774.76162982 877.9690702 C-774.74607709 880.47534032 -774.73039504 882.98160961 -774.71469307 885.4878788 C-774.61421982 901.56563767 -774.5173759 917.64341124 -774.43265802 933.72126144 C-774.39810916 940.25212381 -774.3608118 946.78296731 -774.32174891 953.31380421 C-774.29909874 957.12776494 -774.27783626 960.94171991 -774.26048088 964.75570869 C-774.16368093 985.8504585 -773.71183996 1006.9169105 -773 1028 C-691.58460685 1028.44403294 -691.58460685 1028.44403294 -610.1875 1027.0625 C-609.09017988 1027.029678 -609.09017988 1027.029678 -607.97069168 1026.99619293 C-592.30409369 1026.52477384 -576.6473259 1025.91709104 -561 1025 C-562.69317661 1020.40138678 -565.14462155 1017.18970822 -568.375 1013.5625 C-569.46237497 1012.3178266 -570.54961058 1011.07303144 -571.63671875 1009.828125 C-572.19407715 1009.19455078 -572.75143555 1008.56097656 -573.32568359 1007.90820312 C-575.96893071 1004.89571851 -578.57947383 1001.85547763 -581.1875 998.8125 C-581.69087891 998.22581543 -582.19425781 997.63913086 -582.71289062 997.03466797 C-586.38072514 992.7495345 -589.97622373 988.41063019 -593.53125 984.03125 C-595.43841775 981.6895377 -597.35524798 979.35740313 -599.28125 977.03125 C-606.19655271 968.67656732 -613.01121161 960.25949587 -619.67333984 951.70166016 C-621.94008333 948.79418829 -624.22086052 945.8977573 -626.5 943 C-627.41673133 941.83338414 -628.33339806 940.66671752 -629.25 939.5 C-629.70375 938.9225 -630.1575 938.345 -630.625 937.75 C-645.75 918.5 -645.75 918.5 -647.12426758 916.75073242 C-648.04311703 915.58142108 -648.9622261 914.4123137 -649.8815918 913.2434082 C-652.14201072 910.36880151 -654.39814771 907.49106035 -656.64453125 904.60546875 C-663.92831803 895.26374442 -671.422424 886.10461603 -679 877 C-679.50063965 876.39736328 -680.0012793 875.79472656 -680.51708984 875.17382812 C-686.34101764 868.17637788 -692.33454128 861.37536808 -698.51953125 854.6953125 C-700.5290922 852.51169509 -702.49767642 850.30762269 -704.4375 848.0625 C-707.51214012 844.51597267 -710.68588458 841.06819466 -713.875 837.625 C-729.38538222 820.86737142 -744.09627706 803.54181594 -758.25 785.625 C-763.67238912 778.83841573 -769.16077252 772.38351666 -776 767 Z M617 768 C615.27501251 769.93416876 613.59775438 771.88627704 611.9375 773.875 C611.43726318 774.46998291 610.93702637 775.06496582 610.42163086 775.67797852 C607.58735452 779.06102963 604.8013147 782.47642404 602.0625 785.9375 C595.44986772 794.27104273 588.46900829 802.31784316 581.3125 810.1875 C578.33975977 813.45804605 575.51514086 816.80235614 572.75 820.25 C568.65242172 825.32182766 564.27021647 830.05746769 559.80444336 834.80102539 C555.71948015 839.16346231 551.91250281 843.68969027 548.17578125 848.35546875 C545.869683 851.15839248 543.45848469 853.83003275 541 856.5 C536.58252302 861.31044272 532.43060412 866.27970388 528.33251953 871.36279297 C526.81778396 873.22388068 525.28328215 875.06757206 523.74609375 876.91015625 C517.47330799 884.44046626 511.36629694 892.04513983 505.53100586 899.91992188 C501.84022969 904.89843225 498.06701894 909.80520426 494.25 914.6875 C484.25014708 927.49293683 474.40821625 940.41899759 464.6875 953.4375 C459.68116079 960.13830537 454.54800612 966.73023039 449.35449219 973.28662109 C447.9948046 975.00657198 446.64093679 976.73093402 445.2890625 978.45703125 C440.49404759 984.57931454 435.67225252 990.67894174 430.8125 996.75 C430.30630127 997.38252686 429.80010254 998.01505371 429.27856445 998.66674805 C427.10769154 1001.37705644 424.93242845 1004.08338118 422.74609375 1006.78125 C417.95397611 1012.70809608 413.43217002 1018.79967705 409 1025 C418.1576568 1030.4545781 434.01110537 1028.20619038 444.5390625 1028.31640625 C446.26481393 1028.33721774 447.99056257 1028.35826165 449.71630859 1028.3795166 C454.38065323 1028.43537482 459.04504451 1028.48485609 463.70948029 1028.53242874 C466.63566019 1028.56260995 469.561818 1028.59445563 472.48797607 1028.62667847 C520.65781848 1029.15140061 568.82808018 1029.09384908 617 1029 C616.99885445 1027.96981341 616.99770889 1026.93962683 616.99652863 1025.87822247 C616.97116759 1000.65861847 617.04116551 975.44110209 617.20192909 950.22203851 C617.23103847 945.5993007 617.25844993 940.9765528 617.28601074 936.35380554 C617.36764037 922.71203491 617.45195019 909.07028102 617.53643799 895.42852783 C617.61962028 881.99012161 617.70156106 868.55170867 617.78125 855.11328125 C617.78672726 854.19292162 617.79220451 853.272562 617.79784775 852.32431269 C617.96465105 824.21597939 618.07861322 796.10891432 618 768 C617.67 768 617.34 768 617 768 Z " fill="#5437C6" transform="translate(1146,521)"/>
</svg>
